<svg width="36" height="16" viewBox="0 0 36 16" fill="none" xmlns="http://www.w3.org/2000/svg">
<path d="M13.2364 12.0283L7.58373 6.4002C7.294 6.10722 7.05482 5.96398 6.86491 5.96398C6.72425 5.96398 6.64064 6.06185 6.61796 6.25954C6.61796 6.47344 6.74565 6.71975 7.00427 7.00429L12.0477 12.0276H3.59488H2.82809H0.412354V9.83356V7.29532L2.83004 7.89488V9.83292H6.4948L5.53162 8.84316C5.13688 8.44323 4.829 8.03942 4.60732 7.63107C4.38694 7.22532 4.27676 6.85586 4.27676 6.51622V6.22195L4.315 5.92703L4.44269 5.35988C4.53732 4.92107 4.80761 4.50818 5.2555 4.12187C5.70468 3.73621 6.21479 3.5437 6.78972 3.5437C7.50141 3.5437 8.16709 3.83343 8.80035 4.41355L14.2657 9.81995L14.6378 9.82903V12.0276H13.2338V12.0237H13.2364V12.0283ZM4.82316 15.4364C4.64751 15.4364 4.51205 15.4137 4.41158 15.367C4.31435 15.3177 4.18018 15.2289 4.01295 15.0961C3.93322 15.0138 3.85869 14.8997 3.78739 14.7415L3.72646 14.5289V14.326C3.72646 14.0195 3.82887 13.7537 4.03434 13.5249C4.28648 13.3123 4.55482 13.2086 4.83678 13.2086C5.07984 13.2086 5.3255 13.3149 5.57375 13.5327C5.8207 13.744 5.94321 14.0123 5.94321 14.3293C5.94321 14.4952 5.9283 14.6197 5.89265 14.7065C5.8557 14.7875 5.81422 14.8562 5.76755 14.9068C5.74357 14.9632 5.68653 15.0215 5.59903 15.0941C5.40912 15.3223 5.14984 15.4364 4.82316 15.4364ZM7.25381 15.4364C6.94722 15.4364 6.68018 15.3223 6.45137 15.0935C6.38785 15.0326 6.30943 14.9165 6.21479 14.7545C6.17396 14.6112 6.14738 14.4706 6.13377 14.3293C6.13377 14.07 6.23748 13.8023 6.44878 13.5281C6.50323 13.4737 6.62703 13.3953 6.81565 13.2877L7.25122 13.2067C7.49688 13.2067 7.74253 13.313 7.98949 13.5268C8.23774 13.742 8.36154 14.0065 8.36154 14.3241C8.36154 14.4926 8.34533 14.6151 8.31098 14.7C8.27404 14.7888 8.23255 14.8569 8.18718 14.9029C8.16709 14.96 8.10745 15.0241 8.01995 15.0902C7.83328 15.3223 7.5753 15.4364 7.25381 15.4364Z" fill="black"/>
<path d="M14.1528 12.0255V9.85412H17.3153V1.71308L19.7355 0.910645V12.0255H14.1528ZM16.5368 15.4362C16.3884 15.4362 16.262 15.4174 16.1609 15.3778L15.9243 15.2612C15.8698 15.2242 15.8115 15.175 15.7473 15.0914C15.5347 14.9027 15.431 14.6493 15.431 14.3252C15.431 14.0465 15.5399 13.782 15.7473 13.5215C15.9839 13.3089 16.2471 13.2104 16.54 13.2104C16.7967 13.2104 17.0605 13.318 17.3159 13.5215C17.5389 13.7419 17.6491 14.0089 17.6491 14.3252C17.6491 14.4477 17.6251 14.5761 17.5817 14.6947C17.5337 14.8165 17.4462 14.9514 17.3211 15.0881C17.113 15.3221 16.8518 15.4362 16.5368 15.4362Z" fill="black"/>
<path d="M24.6202 12.0256L24.5832 12.6167C24.5618 12.8494 24.5171 13.038 24.4555 13.1839C24.3427 13.5436 24.1859 13.8917 23.9843 14.2209C23.644 14.8198 22.8727 15.1174 21.6742 15.1174C21.3352 15.1174 20.8841 15.072 20.3182 14.9741C21.0779 14.7161 21.5802 14.3616 21.8181 13.9118C22.0903 13.493 22.2284 13.0393 22.2284 12.5493V12.2213V12.0755V11.9011V1.71186L24.6208 0.909424V9.83346H26.4033V12.0308L24.6202 12.0256Z" fill="black"/>
<path d="M25.6709 12.0399V9.87109H28.3472L27.4041 8.41918V3.20788C27.4041 2.43655 27.6433 1.84866 28.1229 1.44874C28.3686 1.27503 28.6279 1.1428 28.9014 1.05335C29.1762 0.96196 29.4672 0.917236 29.7725 0.917236H31.8246C32.3626 0.917236 32.8565 1.18104 33.3031 1.70995C33.506 1.96209 33.659 2.23367 33.7705 2.52406C33.8768 2.81638 33.9273 3.10352 33.9273 3.38677V3.57604V8.42177C33.2221 8.42177 32.631 8.22019 32.1578 7.81897C31.7235 7.40026 31.5096 6.80199 31.5096 6.02159V3.81845C31.5096 3.6065 31.439 3.42826 31.297 3.28566C31.1538 3.16899 30.9794 3.08537 30.7668 3.03935H30.6236C30.4363 3.03935 30.2677 3.09898 30.1187 3.21695C29.9696 3.33362 29.8704 3.54363 29.8198 3.84179V8.51187L30.7642 9.87303H33.9254H35.7195L34.7038 12.0373L25.6709 12.0399Z" fill="black"/>
</svg>
