<svg width="30" height="30" viewBox="0 0 30 30" fill="none" xmlns="http://www.w3.org/2000/svg">
<path fill-rule="evenodd" clip-rule="evenodd" d="M29.849 21.5159C29.539 22.6039 28.829 23.3669 27.852 23.8789C26.161 24.7669 24.471 25.6589 22.751 26.4899C21.633 27.0279 20.429 27.0569 19.205 26.8489C17.074 26.4819 14.937 26.1539 12.803 25.8049C12.489 25.7549 12.17 25.7029 11.869 25.6049C11.21 25.3869 10.591 25.4939 9.99198 25.7929C9.70698 25.9349 9.43298 26.0979 9.16898 26.2739C8.94198 26.4249 8.72098 26.5059 8.46698 26.3719C8.21698 26.2359 8.13798 26.0149 8.15198 25.7389C8.22298 24.3389 8.28698 22.9389 8.35498 21.5399C8.40598 20.4689 8.46098 19.3989 8.51098 18.3259C8.53898 17.7349 8.67598 17.5809 9.26098 17.5089C10.45 17.3619 11.638 17.2189 12.826 17.0689C14.239 16.8889 15.623 17.0679 16.984 17.4319C18.539 17.8459 20.089 18.2909 21.629 18.7579C21.97 18.8619 22.301 19.0689 22.574 19.2999C23.22 19.8529 23.239 20.7079 22.653 21.3279C22.516 21.4709 22.352 21.5889 22.212 21.7769C22.787 21.6399 23.367 21.5259 23.935 21.3659C25.145 21.0239 26.309 20.5619 27.413 19.9519C28.403 19.4049 29.391 19.7749 29.8 20.8149C29.808 20.8379 29.833 20.8569 29.851 20.8779C29.849 21.0899 29.849 21.3039 29.849 21.5159ZM9.39098 24.7469C9.46898 24.7209 9.51598 24.7119 9.55898 24.6919C10.434 24.2949 11.329 24.1689 12.262 24.4769C12.426 24.5319 12.599 24.5619 12.77 24.5899C15.019 24.9569 17.272 25.3039 19.516 25.6909C20.658 25.8869 21.722 25.7209 22.746 25.2039C23.737 24.7039 24.743 24.2319 25.727 23.7199C26.383 23.3759 27.042 23.0189 27.647 22.5909C28.03 22.3199 28.331 21.9219 28.633 21.5529C28.773 21.3839 28.723 21.1639 28.548 21.0059C28.376 20.8499 28.215 20.8599 28.003 20.9799C27.549 21.2349 27.079 21.4659 26.601 21.6679C24.173 22.6859 21.675 23.3189 19.015 22.9669C18 22.8349 17.038 22.5239 16.139 22.0339C15.791 21.8439 15.561 21.3839 15.642 21.0619C15.723 20.7359 16.122 20.4589 16.541 20.4609C16.771 20.4619 17.005 20.4749 17.231 20.5159C17.906 20.6379 18.573 20.7949 19.251 20.9019C19.939 21.0079 20.637 21.0719 21.319 20.8529C21.572 20.7719 21.847 20.6379 21.851 20.3449C21.854 20.0459 21.556 19.9649 21.318 19.8949C20.096 19.5299 18.88 19.1539 17.651 18.8199C16.329 18.4589 14.993 18.1009 13.602 18.2159C12.352 18.3209 11.105 18.4799 9.85798 18.6299C9.78698 18.6389 9.68598 18.7929 9.67898 18.8859C9.63098 19.5799 9.60498 20.2769 9.57098 20.9709C9.51398 22.2149 9.45398 23.4609 9.39098 24.7469Z" fill="white"/>
<path fill-rule="evenodd" clip-rule="evenodd" d="M0.151978 25.7499C0.248978 25.1329 0.351978 24.5149 0.438978 23.8949C0.720978 21.9069 0.993978 19.9169 1.27798 17.9289C1.34898 17.4289 1.55598 17.2599 2.05798 17.2839C3.71798 17.3599 5.37698 17.4409 7.03698 17.5249C7.48598 17.5469 7.71398 17.7939 7.68498 18.2369C7.56498 20.0679 7.43898 21.8989 7.31398 23.7289C7.26898 24.3949 7.22298 25.0599 7.17598 25.7239C7.14698 26.1139 6.93698 26.3149 6.54398 26.3319C4.67198 26.4129 2.79898 26.4859 0.926978 26.5749C0.565978 26.5939 0.306978 26.4859 0.151978 26.1549C0.151978 26.0209 0.151978 25.8849 0.151978 25.7499ZM1.43398 25.3629C2.35098 25.3239 3.24198 25.2869 4.14198 25.2499C4.36198 23.0209 4.57798 20.8329 4.79798 18.6139C3.98698 18.5739 3.20198 18.5349 2.39898 18.4949C2.07698 20.7929 1.75898 23.0559 1.43398 25.3629ZM6.02598 25.1669C6.17098 23.0039 6.31498 20.8619 6.45998 18.7009C6.36298 18.6889 6.29698 18.6799 6.23198 18.6769C6.15698 18.6739 6.08198 18.6759 5.98498 18.6759C5.77098 20.8549 5.55898 23.0099 5.34798 25.1669C5.59898 25.1669 5.79898 25.1669 6.02598 25.1669Z" fill="white"/>
<path fill-rule="evenodd" clip-rule="evenodd" d="M21.593 2.0259C25.553 2.0359 28.933 5.3779 28.908 9.2559C28.884 13.1829 25.509 16.4859 21.542 16.4679C17.58 16.4499 14.237 13.1279 14.247 9.2199C14.257 5.3189 17.63 2.0169 21.593 2.0259ZM21.574 15.2949C21.91 15.2639 22.249 15.2529 22.582 15.1969C24.811 14.8189 26.448 13.6309 27.274 11.5149C28.114 9.3589 27.854 7.2709 26.383 5.4529C24.881 3.5929 22.853 2.9609 20.525 3.3049C17.337 3.7759 15.017 6.6159 15.498 10.0869C15.93 13.1869 18.442 15.2899 21.574 15.2949Z" fill="white"/>
<path fill-rule="evenodd" clip-rule="evenodd" d="M22.131 6.1189C22.49 6.1499 22.818 6.1639 23.14 6.2069C23.502 6.2549 23.733 6.5389 23.694 6.8629C23.653 7.2089 23.367 7.4169 22.985 7.3779C22.774 7.3559 22.563 7.3329 22.352 7.3119C22.294 7.3069 22.237 7.3109 22.131 7.3109C22.131 7.7629 22.158 8.2049 22.123 8.6419C22.092 9.0509 22.194 9.2779 22.602 9.4729C22.984 9.6549 23.336 9.9819 23.596 10.3259C24.108 10.9999 23.99 11.8259 23.339 12.3709C23.063 12.6019 22.73 12.7809 22.399 12.9259C22.182 13.0209 22.104 13.1259 22.128 13.3499C22.147 13.5219 22.137 13.6979 22.131 13.8719C22.116 14.2369 21.872 14.4929 21.542 14.4979C21.209 14.5029 20.961 14.2569 20.939 13.8869C20.928 13.6869 20.937 13.4849 20.937 13.2879C20.565 13.2489 20.219 13.2249 19.88 13.1709C19.599 13.1259 19.439 12.9379 19.408 12.6559C19.367 12.2579 19.688 11.9659 20.106 12.0109C20.364 12.0389 20.623 12.0679 20.935 12.1029C20.935 11.7359 20.904 11.3989 20.941 11.0689C21.01 10.4769 20.903 10.0589 20.269 9.7859C19.914 9.6319 19.62 9.2399 19.401 8.8899C19.025 8.2929 19.123 7.6219 19.649 7.1509C19.965 6.8679 20.361 6.6679 20.74 6.4629C20.882 6.3859 20.947 6.3219 20.938 6.1619C20.927 5.9699 20.926 5.7749 20.938 5.5829C20.961 5.2369 21.217 4.9899 21.533 4.9909C21.861 4.9919 22.116 5.2559 22.13 5.6129C22.136 5.7759 22.131 5.9389 22.131 6.1189ZM22.148 10.4819C22.148 10.9389 22.148 11.3549 22.148 11.7789C22.509 11.6299 22.78 11.3229 22.751 11.0669C22.714 10.7309 22.451 10.6069 22.148 10.4819ZM20.916 7.6119C20.597 7.8109 20.326 7.9939 20.352 8.3479C20.373 8.6539 20.626 8.7829 20.916 8.8839C20.916 8.4599 20.916 8.0639 20.916 7.6119Z" fill="white"/>
</svg>
