<svg width="15" height="15" viewBox="0 0 15 15" fill="none" xmlns="http://www.w3.org/2000/svg">
<g clip-path="url(#clip0_1_1676)">
<path d="M10.543 0.352783H4.20914C2.14773 0.352783 0.470703 2.02981 0.470703 4.09122V10.4252C0.470703 12.4865 2.14773 14.1635 4.20914 14.1635H10.5431C12.6044 14.1635 14.2814 12.4865 14.2814 10.4252V4.09122C14.2814 2.02981 12.6044 0.352783 10.543 0.352783V0.352783ZM7.37606 11.0344C5.29379 11.0344 3.5998 9.34041 3.5998 7.25814C3.5998 5.17587 5.29379 3.48188 7.37606 3.48188C9.45833 3.48188 11.1523 5.17587 11.1523 7.25814C11.1523 9.34041 9.45833 11.0344 7.37606 11.0344ZM11.2426 4.37244C10.6273 4.37244 10.1268 3.87195 10.1268 3.2566C10.1268 2.64126 10.6273 2.14066 11.2426 2.14066C11.858 2.14066 12.3586 2.64126 12.3586 3.2566C12.3586 3.87195 11.858 4.37244 11.2426 4.37244Z" fill="#F16126"/>
<path d="M7.37604 4.2915C5.74032 4.2915 4.40942 5.62229 4.40942 7.25812C4.40942 8.89385 5.74032 10.2247 7.37604 10.2247C9.01187 10.2247 10.3427 8.89385 10.3427 7.25812C10.3427 5.62229 9.01187 4.2915 7.37604 4.2915Z" fill="#F16126"/>
<path d="M11.2426 2.95044C11.0738 2.95044 10.9364 3.08784 10.9364 3.25664C10.9364 3.42544 11.0738 3.56283 11.2426 3.56283C11.4115 3.56283 11.5489 3.42554 11.5489 3.25664C11.5489 3.08773 11.4115 2.95044 11.2426 2.95044Z" fill="#F16126"/>
</g>
<defs>
<clipPath id="clip0_1_1676">
<rect width="13.8107" height="13.8107" fill="white" transform="translate(0.470703 0.352783)"/>
</clipPath>
</defs>
</svg>
