<svg width="30" height="30" viewBox="0 0 30 30" fill="none" xmlns="http://www.w3.org/2000/svg">
<g clip-path="url(#clip0_1_56)">
<path fill-rule="evenodd" clip-rule="evenodd" d="M7.815 0.709107C9.685 0.709107 11.554 0.714107 13.423 0.704107C13.87 0.703107 14.222 0.853107 14.532 1.17211C19.478 6.25311 24.428 11.3301 29.375 16.4081C29.918 16.9661 29.918 17.6561 29.375 18.2151C25.759 21.9291 22.142 25.6411 18.521 29.3491C17.959 29.9241 17.247 29.9191 16.68 29.3371C12.826 25.3841 8.973 21.4291 5.119 17.4741C3.841 16.1631 2.567 14.8501 1.282 13.5461C0.971003 13.2291 0.822003 12.8791 0.823003 12.4321C0.833003 9.02111 0.829003 5.61111 0.830003 2.20211C0.830003 2.01811 0.822003 1.83011 0.859003 1.65211C0.980003 1.08011 1.466 0.711107 2.089 0.710107C3.998 0.708107 5.906 0.709107 7.815 0.709107ZM28.564 17.3141C28.521 17.2641 28.498 17.2341 28.47 17.2071C23.556 12.1651 18.644 7.12311 13.725 2.08611C13.632 1.99111 13.459 1.92811 13.325 1.92811C9.684 1.92011 6.043 1.92111 2.401 1.92111C2.288 1.92111 2.175 1.92111 2.052 1.92111C2.045 2.03411 2.036 2.10911 2.035 2.18511C2.034 5.57511 2.032 8.96511 2.042 12.3531C2.042 12.4961 2.131 12.6681 2.234 12.7741C6.899 17.5701 11.567 22.3651 16.241 27.1521C16.693 27.6151 17.18 28.0441 17.665 28.5021C21.265 24.8081 24.906 21.0701 28.564 17.3141Z" fill="white"/>
<path fill-rule="evenodd" clip-rule="evenodd" d="M4.466 7.37211C4.462 5.70111 5.82 4.34311 7.494 4.34611C9.168 4.34911 10.519 5.70411 10.516 7.37911C10.513 9.02811 9.148 10.3941 7.501 10.3961C5.83 10.3971 4.469 9.04211 4.466 7.37211ZM7.499 9.18711C8.492 9.18011 9.311 8.35611 9.312 7.36511C9.312 6.36611 8.462 5.52911 7.467 5.54711C6.47 5.56611 5.657 6.39811 5.67 7.38411C5.684 8.37911 6.511 9.19511 7.499 9.18711Z" fill="white"/>
</g>
<defs>
<clipPath id="clip0_1_56">
<rect width="30" height="30" fill="white"/>
</clipPath>
</defs>
</svg>
