<svg width="36" height="34" viewBox="0 0 36 34" fill="none" xmlns="http://www.w3.org/2000/svg">
<g filter="url(#filter0_d_1_1659)">
<path fill-rule="evenodd" clip-rule="evenodd" d="M4.00207 25.6876C4.10978 25.1876 4.20299 24.6845 4.32934 24.1904C4.98491 21.6156 6.3178 19.4242 8.29901 17.603C10.3372 15.7305 12.742 14.5322 15.503 14.0804C19.6591 13.4002 23.4486 14.2917 26.7699 16.8273C29.6232 19.0056 31.3216 21.8783 31.9265 25.3556C31.9472 25.4663 31.9762 25.5759 32 25.6876C32 25.7218 32 25.7571 32 25.7923C31.883 25.7963 31.7628 25.8043 31.6458 25.8043C22.5486 25.8043 13.4514 25.8043 4.35419 25.8043C4.23717 25.8043 4.11703 25.7963 4 25.7923C4.00207 25.7571 4.00207 25.7218 4.00207 25.6876ZM5.64566 24.7227C13.9019 24.7227 22.0971 24.7227 30.3036 24.7227C30.3036 24.6482 30.3119 24.5859 30.3015 24.5285C29.8365 21.7424 28.4353 19.4805 26.1983 17.7097C24.1735 16.1078 21.8402 15.2234 19.2438 14.993C17.2098 14.8119 15.2224 15.0282 13.3199 15.7557C9.71268 17.1341 7.17843 19.5329 6.01332 23.1853C5.8559 23.6763 5.77097 24.1884 5.64566 24.7227Z" fill="black"/>
<path fill-rule="evenodd" clip-rule="evenodd" d="M11.8503 6.74345C11.9249 3.36873 14.6911 0.760727 18.0901 0.804999C21.3597 0.846252 24.1704 3.4442 24.1487 6.80885C24.1259 10.1624 21.3369 12.8016 17.913 12.7483C14.4405 12.695 11.8472 9.97327 11.8503 6.74345ZM17.9969 11.6747C20.7404 11.6787 22.9991 9.50942 23.0519 6.90745C23.1068 4.17368 20.847 1.88261 18.0466 1.87557C15.2162 1.86853 12.9637 4.03583 12.9606 6.76558C12.9575 9.49333 15.1903 11.6707 17.9969 11.6747Z" fill="black"/>
</g>
<defs>
<filter id="filter0_d_1_1659" x="0" y="0.804443" width="36" height="33" filterUnits="userSpaceOnUse" color-interpolation-filters="sRGB">
<feFlood flood-opacity="0" result="BackgroundImageFix"/>
<feColorMatrix in="SourceAlpha" type="matrix" values="0 0 0 0 0 0 0 0 0 0 0 0 0 0 0 0 0 0 127 0" result="hardAlpha"/>
<feOffset dy="4"/>
<feGaussianBlur stdDeviation="2"/>
<feComposite in2="hardAlpha" operator="out"/>
<feColorMatrix type="matrix" values="0 0 0 0 0 0 0 0 0 0 0 0 0 0 0 0 0 0 0.25 0"/>
<feBlend mode="normal" in2="BackgroundImageFix" result="effect1_dropShadow_1_1659"/>
<feBlend mode="normal" in="SourceGraphic" in2="effect1_dropShadow_1_1659" result="shape"/>
</filter>
</defs>
</svg>
