<svg width="15" height="15" viewBox="0 0 15 15" fill="none" xmlns="http://www.w3.org/2000/svg">
<path fill-rule="evenodd" clip-rule="evenodd" d="M9.86417 10.9119C7.05749 13.0618 3.30931 12.3819 1.35182 9.92462C-0.608308 7.46475 -0.41513 3.99323 1.79026 1.78528C3.98906 -0.416075 7.43198 -0.568416 9.81341 1.25506C12.3735 3.21504 13.0803 7.03872 10.8821 9.90682C10.9309 9.93517 10.9988 9.95628 11.0424 10.0018C12.2733 11.2291 13.4996 12.4597 14.7305 13.6863C14.9488 13.9026 15.051 14.1513 14.9751 14.4507C14.8334 15.002 14.1701 15.184 13.7455 14.785C13.4686 14.5252 13.2056 14.2495 12.9372 13.9811C11.9469 12.9899 10.9573 11.9987 9.96703 11.0075C9.93736 10.9758 9.90373 10.9481 9.86417 10.9119ZM6.08962 10.7292C8.6372 10.7331 10.7259 8.65512 10.7305 6.10951C10.7345 3.5672 8.66225 1.47532 6.12852 1.46741C3.56117 1.45884 1.47511 3.53423 1.47247 6.10292C1.46918 8.63863 3.55128 10.7246 6.08962 10.7292Z" fill="white"/>
</svg>
