<svg width="16" height="13" viewBox="0 0 16 13" fill="none" xmlns="http://www.w3.org/2000/svg">
<path d="M15.2978 2.08519C14.7628 2.31986 14.1928 2.47541 13.5984 2.55094C14.2099 2.18589 14.6765 1.61224 14.8959 0.920805C14.3258 1.26068 13.6964 1.50075 13.0257 1.63472C12.4844 1.05837 11.713 0.701416 10.8714 0.701416C9.23853 0.701416 7.92399 2.02674 7.92399 3.65148C7.92399 3.88526 7.94377 4.11004 7.99232 4.32404C5.54038 4.20445 3.37076 3.02928 1.91326 1.2391C1.6588 1.68058 1.50955 2.18589 1.50955 2.72987C1.50955 3.75129 2.03554 4.65672 2.81959 5.18092C2.34574 5.17192 1.88089 5.03436 1.48707 4.81766C1.48707 4.82666 1.48707 4.83834 1.48707 4.85003C1.48707 6.28326 2.50939 7.47371 3.85 7.74795C3.60993 7.81359 3.34828 7.84506 3.07674 7.84506C2.88792 7.84506 2.69731 7.83427 2.51838 7.79471C2.90051 8.96268 3.98487 9.82136 5.27423 9.84923C4.2708 10.6342 2.99672 11.1071 1.61744 11.1071C1.37558 11.1071 1.1436 11.0963 0.911621 11.0667C2.21807 11.9092 3.76638 12.3902 5.43608 12.3902C10.8633 12.3902 13.8304 7.89451 13.8304 3.99765C13.8304 3.86728 13.8259 3.7414 13.8196 3.61642C14.405 3.20102 14.8968 2.68221 15.2978 2.08519Z" fill="#F16126"/>
</svg>
