<svg width="17" height="12" viewBox="0 0 17 12" fill="none" xmlns="http://www.w3.org/2000/svg">
<path d="M16.2771 2.19817C16.0968 1.52793 15.5684 0.999583 14.8983 0.819108C13.674 0.484131 8.77682 0.484131 8.77682 0.484131C8.77682 0.484131 3.87984 0.484131 2.65557 0.806407C1.99832 0.986691 1.45699 1.52802 1.2767 2.19817C0.954522 3.42234 0.954522 5.96111 0.954522 5.96111C0.954522 5.96111 0.954522 8.51269 1.2767 9.72406C1.45718 10.3942 1.98543 10.9226 2.65567 11.103C3.89273 11.4381 8.77701 11.4381 8.77701 11.4381C8.77701 11.4381 13.674 11.4381 14.8983 11.1158C15.5685 10.9354 16.0968 10.4071 16.2773 9.73696C16.5994 8.51269 16.5994 5.97401 16.5994 5.97401C16.5994 5.97401 16.6123 3.42234 16.2771 2.19817ZM7.21767 8.30653V3.61571L11.2899 5.96111L7.21767 8.30653Z" fill="white"/>
</svg>
